<svg xmlns="http://www.w3.org/2000/svg" viewBox="0 0 400 500" width="400" height="500">
  <defs>
    <radialGradient id="bg" cx="50%" cy="40%" r="60%">
      <stop offset="0%" stop-color="#0f0f12"/>
      <stop offset="100%" stop-color="#050507"/>
    </radialGradient>
    <linearGradient id="bottle" x1="0" y1="0" x2="1" y2="0">
      <stop offset="0%" stop-color="#1a1a1a"/>
      <stop offset="15%" stop-color="#2a2a2a"/>
      <stop offset="50%" stop-color="#333333"/>
      <stop offset="85%" stop-color="#2a2a2a"/>
      <stop offset="100%" stop-color="#1a1a1a"/>
    </linearGradient>
    <linearGradient id="label" x1="0" y1="0" x2="1" y2="1">
      <stop offset="0%" stop-color="#d4b882"/>
      <stop offset="50%" stop-color="#c8a870"/>
      <stop offset="100%" stop-color="#bfa068"/>
    </linearGradient>
    <linearGradient id="cap" x1="0" y1="0" x2="0" y2="1">
      <stop offset="0%" stop-color="#2a2a2a"/>
      <stop offset="50%" stop-color="#1a1a1a"/>
      <stop offset="100%" stop-color="#111111"/>
    </linearGradient>
  </defs>
  <rect width="400" height="500" fill="url(#bg)"/>
  <ellipse cx="200" cy="458" rx="100" ry="6" fill="rgba(255,255,255,0.03)"/>
  
  <!-- Bottle body -->
  <rect x="140" y="190" width="120" height="260" rx="10" fill="url(#bottle)" stroke="rgba(60,60,60,0.5)" stroke-width="1"/>
  <!-- Highlight -->
  <rect x="142" y="192" width="12" height="256" rx="8" fill="rgba(255,255,255,0.06)"/>
  <rect x="246" y="192" width="8" height="256" rx="6" fill="rgba(255,255,255,0.03)"/>
  
  <!-- Bottle neck -->
  <rect x="170" y="170" width="60" height="25" rx="4" fill="url(#bottle)" stroke="rgba(60,60,60,0.3)" stroke-width="0.5"/>
  
  <!-- Cap -->
  <rect x="165" y="140" width="70" height="35" rx="6" fill="url(#cap)"/>
  <rect x="165" y="140" width="70" height="5" rx="3" fill="rgba(255,255,255,0.08)"/>
  <!-- Cap ridges -->
  <g opacity="0.15">
    <line x1="170" y1="145" x2="170" y2="172" stroke="rgba(255,255,255,0.3)" stroke-width="0.5"/>
    <line x1="175" y1="145" x2="175" y2="172" stroke="rgba(255,255,255,0.3)" stroke-width="0.5"/>
    <line x1="180" y1="145" x2="180" y2="172" stroke="rgba(255,255,255,0.3)" stroke-width="0.5"/>
    <line x1="185" y1="145" x2="185" y2="172" stroke="rgba(255,255,255,0.3)" stroke-width="0.5"/>
    <line x1="190" y1="145" x2="190" y2="172" stroke="rgba(255,255,255,0.3)" stroke-width="0.5"/>
    <line x1="195" y1="145" x2="195" y2="172" stroke="rgba(255,255,255,0.3)" stroke-width="0.5"/>
    <line x1="200" y1="145" x2="200" y2="172" stroke="rgba(255,255,255,0.3)" stroke-width="0.5"/>
    <line x1="205" y1="145" x2="205" y2="172" stroke="rgba(255,255,255,0.3)" stroke-width="0.5"/>
    <line x1="210" y1="145" x2="210" y2="172" stroke="rgba(255,255,255,0.3)" stroke-width="0.5"/>
    <line x1="215" y1="145" x2="215" y2="172" stroke="rgba(255,255,255,0.3)" stroke-width="0.5"/>
    <line x1="220" y1="145" x2="220" y2="172" stroke="rgba(255,255,255,0.3)" stroke-width="0.5"/>
    <line x1="225" y1="145" x2="225" y2="172" stroke="rgba(255,255,255,0.3)" stroke-width="0.5"/>
  </g>
  
  <!-- Label -->
  <rect x="148" y="260" width="104" height="160" rx="2" fill="url(#label)"/>
  <text x="200" y="290" font-family="Arial Black, Arial, sans-serif" font-size="18" font-weight="900" fill="#1a1a1a" text-anchor="middle" letter-spacing="2">818 LABS</text>
  <line x1="163" y1="298" x2="237" y2="298" stroke="#1a1a1a" stroke-width="0.5" opacity="0.3"/>
  <text x="200" y="335" font-family="Arial Black, Arial, sans-serif" font-size="30" font-weight="900" fill="#1a1a1a" text-anchor="middle">MK-677</text>
  <text x="200" y="365" font-family="Arial, sans-serif" font-size="14" fill="#3a3a3a" text-anchor="middle">Capsules</text>
  <text x="200" y="383" font-family="Arial, sans-serif" font-size="12" fill="#3a3a3a" text-anchor="middle">99% Purity</text>
  <text x="200" y="400" font-family="Arial, sans-serif" font-size="10" fill="#555555" text-anchor="middle">For Research Use Only</text>
</svg>