<svg xmlns="http://www.w3.org/2000/svg" viewBox="0 0 400 500" width="400" height="500">
  <defs>
    <!-- Dark background gradient -->
    <radialGradient id="bg" cx="50%" cy="40%" r="60%">
      <stop offset="0%" stop-color="#0f0f12"/>
      <stop offset="100%" stop-color="#050507"/>
    </radialGradient>
    <!-- Glass body gradient -->
    <linearGradient id="glass" x1="0" y1="0" x2="1" y2="0">
      <stop offset="0%" stop-color="rgba(180,200,210,0.15)"/>
      <stop offset="15%" stop-color="rgba(220,235,240,0.08)"/>
      <stop offset="40%" stop-color="rgba(200,215,225,0.05)"/>
      <stop offset="60%" stop-color="rgba(200,215,225,0.05)"/>
      <stop offset="85%" stop-color="rgba(220,235,240,0.08)"/>
      <stop offset="100%" stop-color="rgba(180,200,210,0.15)"/>
    </linearGradient>
    <!-- Glass highlight left -->
    <linearGradient id="glassHL" x1="0" y1="0" x2="1" y2="0">
      <stop offset="0%" stop-color="rgba(255,255,255,0.25)"/>
      <stop offset="100%" stop-color="rgba(255,255,255,0)"/>
    </linearGradient>
    <!-- Glass highlight right -->
    <linearGradient id="glassHR" x1="0" y1="0" x2="1" y2="0">
      <stop offset="0%" stop-color="rgba(255,255,255,0)"/>
      <stop offset="100%" stop-color="rgba(255,255,255,0.12)"/>
    </linearGradient>
    <!-- Silver cap gradient -->
    <linearGradient id="silver" x1="0" y1="0" x2="0" y2="1">
      <stop offset="0%" stop-color="#e8e8e8"/>
      <stop offset="20%" stop-color="#c0c0c0"/>
      <stop offset="50%" stop-color="#d8d8d8"/>
      <stop offset="80%" stop-color="#a8a8a8"/>
      <stop offset="100%" stop-color="#b8b8b8"/>
    </linearGradient>
    <!-- Gold cap gradient -->
    <linearGradient id="goldCap" x1="0" y1="0" x2="0" y2="1">
      <stop offset="0%" stop-color="#d4b07a"/>
      <stop offset="50%" stop-color="#c4a060"/>
      <stop offset="100%" stop-color="#b89050"/>
    </linearGradient>
    <!-- Label gradient -->
    <linearGradient id="label" x1="0" y1="0" x2="1" y2="1">
      <stop offset="0%" stop-color="#d4b882"/>
      <stop offset="50%" stop-color="#c8a870"/>
      <stop offset="100%" stop-color="#bfa068"/>
    </linearGradient>
    <!-- Reflection gradient -->
    <linearGradient id="reflect" x1="0" y1="0" x2="0" y2="1">
      <stop offset="0%" stop-color="rgba(180,200,210,0.08)"/>
      <stop offset="100%" stop-color="rgba(0,0,0,0)"/>
    </linearGradient>
  </defs>

  <!-- Background -->
  <rect width="400" height="500" fill="url(#bg)"/>
  
  <!-- Subtle floor reflection line -->
  <ellipse cx="200" cy="460" rx="120" ry="8" fill="rgba(255,255,255,0.03)"/>

  <!-- Vial reflection (flipped, faded) -->
  <g opacity="0.08" transform="translate(0,920) scale(1,-1)">
    <rect x="145" y="200" width="110" height="240" rx="8" fill="rgba(160,180,190,0.3)"/>
  </g>

  <!-- VIAL BODY -->
  <!-- Main glass body -->
  <rect x="145" y="200" width="110" height="240" rx="8" fill="url(#glass)" stroke="rgba(180,200,210,0.12)" stroke-width="1"/>
  
  <!-- Glass left highlight -->
  <rect x="147" y="202" width="15" height="236" rx="6" fill="url(#glassHL)"/>
  
  <!-- Glass right highlight -->
  <rect x="238" y="202" width="15" height="236" rx="6" fill="url(#glassHR)"/>
  
  <!-- Glass bottom curve -->
  <ellipse cx="200" cy="438" rx="55" ry="6" fill="rgba(180,200,210,0.08)"/>

  <!-- Neck taper -->
  <path d="M155,200 L155,185 Q155,175 165,170 L235,170 Q245,175 245,185 L245,200" fill="url(#glass)" stroke="rgba(180,200,210,0.1)" stroke-width="0.5"/>

  <!-- CRIMP CAP (silver aluminum) -->
  <rect x="155" y="155" width="90" height="20" rx="3" fill="url(#silver)"/>
  <!-- Crimp cap ridges -->
  <line x1="160" y1="170" x2="160" y2="175" stroke="rgba(150,150,150,0.4)" stroke-width="0.5"/>
  <line x1="170" y1="170" x2="170" y2="175" stroke="rgba(150,150,150,0.4)" stroke-width="0.5"/>
  <line x1="180" y1="170" x2="180" y2="175" stroke="rgba(150,150,150,0.4)" stroke-width="0.5"/>
  <line x1="190" y1="170" x2="190" y2="175" stroke="rgba(150,150,150,0.4)" stroke-width="0.5"/>
  <line x1="200" y1="170" x2="200" y2="175" stroke="rgba(150,150,150,0.4)" stroke-width="0.5"/>
  <line x1="210" y1="170" x2="210" y2="175" stroke="rgba(150,150,150,0.4)" stroke-width="0.5"/>
  <line x1="220" y1="170" x2="220" y2="175" stroke="rgba(150,150,150,0.4)" stroke-width="0.5"/>
  <line x1="230" y1="170" x2="230" y2="175" stroke="rgba(150,150,150,0.4)" stroke-width="0.5"/>
  <line x1="240" y1="170" x2="240" y2="175" stroke="rgba(150,150,150,0.4)" stroke-width="0.5"/>
  <!-- Cap highlight -->
  <rect x="155" y="155" width="90" height="4" rx="2" fill="rgba(255,255,255,0.2)"/>

  <!-- FLIP-OFF CAP (gold/beige) -->
  <rect x="168" y="140" width="64" height="18" rx="6" fill="url(#goldCap)"/>
  <rect x="168" y="140" width="64" height="4" rx="3" fill="rgba(255,255,255,0.15)"/>

  <!-- LABEL -->
  <rect x="150" y="265" width="100" height="160" rx="2" fill="url(#label)"/>
  
  <!-- Label text: 818 LABS -->
  <text x="200" y="292" font-family="Arial Black, Arial, sans-serif" font-size="18" font-weight="900" fill="#1a1a1a" text-anchor="middle" letter-spacing="2">818 LABS</text>
  
  <!-- Separator line -->
  <line x1="165" y1="300" x2="235" y2="300" stroke="#1a1a1a" stroke-width="0.5" opacity="0.3"/>
  
  <!-- Product name -->
  <text x="200" y="342" font-family="Arial Black, Arial, sans-serif" font-size="28" font-weight="900" fill="#1a1a1a" text-anchor="middle">SEMAGLUTIDE</text>
  
  <!-- Dose -->
  <text x="200" y="375" font-family="Arial, sans-serif" font-size="14" fill="#3a3a3a" text-anchor="middle">10MG</text>
  
  <!-- Purity -->
  <text x="200" y="393" font-family="Arial, sans-serif" font-size="12" fill="#3a3a3a" text-anchor="middle">99% Purity</text>
  
  <!-- Research use only -->
  <text x="200" y="409" font-family="Arial, sans-serif" font-size="10" fill="#555555" text-anchor="middle">For Research Use Only</text>
</svg>