<svg xmlns="http://www.w3.org/2000/svg" viewBox="0 0 400 500" width="400" height="500">
  <defs>
    <radialGradient id="bg" cx="50%" cy="40%" r="60%">
      <stop offset="0%" stop-color="#0f0f12"/>
      <stop offset="100%" stop-color="#050507"/>
    </radialGradient>
    <linearGradient id="sprayBody" x1="0" y1="0" x2="1" y2="0">
      <stop offset="0%" stop-color="rgba(220,230,235,0.85)"/>
      <stop offset="20%" stop-color="rgba(240,245,248,0.9)"/>
      <stop offset="80%" stop-color="rgba(240,245,248,0.9)"/>
      <stop offset="100%" stop-color="rgba(210,220,225,0.85)"/>
    </linearGradient>
    <linearGradient id="label" x1="0" y1="0" x2="1" y2="1">
      <stop offset="0%" stop-color="#d4b882"/>
      <stop offset="50%" stop-color="#c8a870"/>
      <stop offset="100%" stop-color="#bfa068"/>
    </linearGradient>
  </defs>
  <rect width="400" height="500" fill="url(#bg)"/>
  <ellipse cx="200" cy="458" rx="80" ry="5" fill="rgba(255,255,255,0.03)"/>
  
  <!-- Spray body -->
  <rect x="160" y="200" width="80" height="250" rx="8" fill="url(#sprayBody)" stroke="rgba(200,210,215,0.3)" stroke-width="1"/>
  <rect x="162" y="202" width="8" height="246" rx="6" fill="rgba(255,255,255,0.15)"/>
  
  <!-- Nozzle base -->
  <rect x="175" y="175" width="50" height="30" rx="4" fill="rgba(230,235,238,0.9)"/>
  
  <!-- Nozzle tip -->
  <rect x="210" y="155" width="30" height="12" rx="3" fill="rgba(200,205,210,0.9)"/>
  <rect x="235" y="158" width="15" height="6" rx="3" fill="rgba(180,185,190,0.9)"/>
  
  <!-- Actuator button -->
  <rect x="185" y="165" width="30" height="15" rx="4" fill="rgba(200,205,210,0.95)"/>
  
  <!-- Label -->
  <rect x="166" y="270" width="68" height="150" rx="2" fill="url(#label)"/>
  <text x="200" y="295" font-family="Arial Black, Arial, sans-serif" font-size="14" font-weight="900" fill="#1a1a1a" text-anchor="middle" letter-spacing="1">818 LABS</text>
  <line x1="175" y1="302" x2="225" y2="302" stroke="#1a1a1a" stroke-width="0.5" opacity="0.3"/>
  <text x="200" y="325" font-family="Arial Black, Arial, sans-serif" font-size="13" font-weight="900" fill="#1a1a1a" text-anchor="middle">SEMAX/SELANK</text>
  <text x="200" y="342" font-family="Arial Black, Arial, sans-serif" font-size="13" font-weight="900" fill="#1a1a1a" text-anchor="middle">NASAL SPRAY</text>
  <text x="200" y="362" font-family="Arial, sans-serif" font-size="11" fill="#3a3a3a" text-anchor="middle">Nasal Spray</text>
  <text x="200" y="378" font-family="Arial, sans-serif" font-size="9" fill="#555555" text-anchor="middle">For Research Use Only</text>
</svg>